# xmcd
#
# Track frame offsets:
#	150
#	16947
#	32438
#	50608
#	65585
#	78162
#	93276
#	114431
#	132301
#	148657
#	164765
#	178670
#
# Disc length: 2635 seconds
#
# Revision: 1
# Processed by: cddbd v1.5.2PL0 Copyright (c) Steve Scherf et al.
# Submitted via: audiograbber 1.83.01
#
DISCID=9d0a490c
DTITLE=Fabiana Dammers - The girl you love
DYEAR=2012
DGENRE=Lokaal
TTITLE0=Fabiana Dammers - Roundabout town
TTITLE1=Fabiana Dammers - The girl you love
TTITLE2=Fabiana Dammers - Blinded
TTITLE3=Fabiana Dammers - Can't say no
TTITLE4=Fabiana Dammers - Make me whole
TTITLE5=Fabiana Dammers - I wonder
TTITLE6=Fabiana Dammers - Nobody knows
TTITLE7=Fabiana Dammers - Hey handsome
TTITLE8=Fabiana Dammers - My eyes on you
TTITLE9=Fabiana Dammers - All this craziness
TTITLE10=Fabiana Dammers - Today
TTITLE11=Fabiana Dammers - Lasciami illusa
EXTD=
EXTT0=
EXTT1=
EXTT2=
EXTT3=
EXTT4=
EXTT5=
EXTT6=
EXTT7=
EXTT8=
EXTT9=
EXTT10=
EXTT11=
PLAYORDER=
